<!DOCTYPE svg PUBLIC "-//W3C//DTD SVG 20010904//EN" "http://www.w3.org/TR/2001/REC-SVG-20010904/DTD/svg10.dtd">
<svg version="1.0" xmlns="http://www.w3.org/2000/svg" width="103px" height="67px" viewBox="0 0 1030 670" preserveAspectRatio="xMidYMid meet">
<g id="layer101" fill="#ec3a3a" stroke="none">
 <path d="M149 665 c-1 -3 -3 -9 -4 -15 -1 -5 -3 -16 -4 -22 -1 -10 -4 -10 -10 1 -6 10 -11 4 -19 -20 -16 -55 -24 -106 -12 -89 5 8 10 26 10 40 0 14 5 32 11 40 8 11 9 9 3 -10 -4 -14 -7 -47 -7 -75 0 -28 3 -61 7 -75 6 -19 5 -21 -3 -10 -6 8 -11 29 -12 45 -2 29 -2 29 -6 4 -6 -38 22 -99 44 -99 12 0 8 -5 -12 -16 -16 -8 -37 -21 -46 -27 -8 -7 -1 1 15 17 18 16 23 24 11 18 -74 -38 -148 -200 -100 -218 8 -4 12 -11 8 -17 -3 -6 -1 -7 6 -3 6 4 9 11 6 16 -3 4 3 16 13 27 9 10 14 14 10 9 -16 -20 -7 -28 12 -11 10 9 18 22 17 28 -1 6 16 18 38 26 58 20 108 8 153 -36 20 -20 27 -28 15 -18 -13 10 -23 14 -23 10 0 -5 -11 2 -24 15 -19 17 -32 21 -53 16 -15 -4 -34 -7 -42 -8 -7 -1 -20 -16 -27 -35 -12 -28 -12 -38 0 -67 8 -18 24 -41 37 -50 25 -17 64 -21 73 -8 3 5 -7 7 -22 5 -15 -3 -36 3 -47 12 -20 16 -20 16 2 5 29 -13 96 -7 101 10 3 8 0 10 -9 5 -8 -5 -11 -4 -6 1 5 5 14 9 20 9 7 0 14 11 17 25 6 31 30 33 41 3 11 -30 1 -30 -12 -1 -10 24 -9 19 12 -72 l8 -35 -2 37 c-2 20 1 34 5 32 4 -3 8 -18 8 -35 0 -16 5 -29 10 -29 6 0 10 5 10 11 0 5 4 8 9 5 16 -10 36 58 36 124 -1 44 -7 75 -19 95 -9 17 -14 21 -11 10 29 -85 31 -162 5 -203 -10 -15 -11 -15 -5 3 15 45 16 113 4 155 -7 25 -13 50 -14 55 0 6 -4 13 -10 17 -6 5 -5 8 2 8 7 0 32 16 55 36 l43 37 -42 -42 c-23 -22 -39 -41 -34 -41 5 0 29 22 55 50 l46 49 46 -49 c26 -28 50 -50 55 -50 5 0 -9 17 -29 38 -21 20 -24 25 -7 11 16 -15 39 -31 50 -37 11 -6 14 -12 7 -12 -7 0 -10 -5 -6 -12 4 -6 3 -8 -3 -5 -17 11 -38 -54 -38 -118 0 -62 20 -129 36 -119 5 3 9 0 9 -5 0 -25 20 -9 21 17 0 15 4 36 9 47 6 14 7 4 5 -30 -4 -43 -3 -45 4 -15 4 19 12 48 16 64 6 23 5 27 -5 21 -9 -5 -11 -4 -6 4 4 6 12 8 18 5 7 -5 9 -1 5 9 -8 23 54 74 100 83 41 8 119 -14 116 -32 -1 -6 14 -26 34 -45 20 -19 33 -29 30 -23 -4 7 0 14 8 18 21 8 18 52 -5 104 -13 28 -24 41 -31 36 -8 -5 -9 -3 -4 5 8 14 -27 56 -60 73 -12 6 -8 -1 11 -18 16 -16 23 -24 15 -17 -9 6 -30 19 -46 27 -19 10 -24 16 -13 16 26 0 48 62 48 135 0 71 -18 135 -31 113 -7 -10 -9 -10 -10 0 -3 26 -4 30 -9 34 -3 1 -4 1 -3 -1 2 -2 -4 -9 -13 -15 -8 -6 -19 -27 -23 -46 -4 -19 -11 -46 -16 -59 -5 -18 -4 -22 6 -16 8 5 11 4 6 -1 -5 -5 -14 -9 -19 -9 -6 0 -13 -6 -16 -14 -3 -9 0 -11 9 -7 8 4 -2 -6 -21 -23 -63 -56 -147 -54 -208 6 l-37 36 37 -31 c61 -50 145 -55 198 -11 25 20 25 20 -15 -1 -22 -11 -55 -20 -73 -20 -43 0 -98 23 -114 49 -18 30 -59 26 -82 -7 l-19 -27 29 25 29 24 -22 -24 c-12 -13 -30 -25 -40 -26 -107 -17 -112 -16 -155 5 -40 20 -41 20 -18 2 33 -27 85 -36 132 -24 20 6 35 6 32 2 -8 -13 -71 -22 -107 -15 -18 3 -48 20 -67 37 -19 17 -29 27 -21 23 9 -4 12 -2 9 7 -3 8 -10 14 -15 14 -6 0 -15 4 -20 9 -5 5 -3 6 5 2 15 -9 15 -11 -3 44 -9 26 -14 33 -11 17 5 -40 -10 -20 -19 23 -4 26 -3 31 4 20 8 -11 11 -11 11 -2 0 7 -7 15 -15 18 -8 4 -12 10 -9 15 3 5 3 9 0 9 -3 0 -7 -2 -7 -5z m721 -150 c0 -38 -4 -75 -8 -82 -4 -6 -7 31 -7 82 0 51 3 88 7 82 4 -7 8 -43 8 -82z m-371 -93 c7 -14 6 -18 -8 -18 -12 0 -17 6 -13 18 2 10 6 18 8 18 2 0 8 -8 13 -18z m-459 -162 c-6 -12 -15 -40 -20 -63 -6 -32 -8 -35 -9 -14 -1 28 23 97 34 97 3 0 1 -9 -5 -20z m926 -46 c3 -18 4 -39 1 -46 -3 -7 -6 0 -6 15 -1 15 -8 44 -16 65 -13 32 -13 35 0 18 8 -11 18 -34 21 -52z m-379 -11 c-8 -37 -8 -65 0 -100 14 -58 9 -70 -6 -16 -14 48 -14 88 0 136 15 55 19 42 6 -20z m-446 -41 c-5 -15 -4 -37 0 -50 5 -12 6 -22 3 -22 -13 0 -23 52 -14 75 13 34 21 32 11 -3z m136 -39 c-3 -10 -5 -2 -5 17 0 19 2 27 5 18 2 -10 2 -26 0 -35z"/>
 <path d="M115 215 c-17 -9 -21 -13 -8 -9 12 2 31 7 44 9 29 6 38 15 13 15 -10 -1 -32 -7 -49 -15z"/>
 <path d="M810 220 c11 -7 5 -8 -18 -4 -26 5 -38 2 -60 -17 -20 -19 -23 -19 -12 -4 12 17 10 16 -11 -3 -22 -19 -25 -28 -19 -60 3 -20 11 -36 18 -35 6 2 9 -3 6 -11 -7 -18 33 -46 64 -46 13 0 37 13 53 29 33 34 40 91 13 129 -15 21 -14 22 12 12 15 -6 29 -9 31 -6 5 5 -55 26 -76 26 -14 0 -14 -2 -1 -10z m40 -80 c0 -21 -3 -41 -7 -43 -5 -3 -8 17 -8 43 0 26 3 46 8 43 4 -2 7 -22 7 -43z m-143 -17 c-3 -10 -5 -2 -5 17 0 19 2 27 5 18 2 -10 2 -26 0 -35z m109 -58 c-23 -17 -54 -19 -76 -5 -11 7 -6 8 17 4 17 -3 39 -1 50 5 26 15 31 13 9 -4z"/>
 </g>
<g id="layer102" fill="#ef7979" stroke="none">
 <path d="M806 641 c-4 -5 -2 -11 3 -13 5 -1 3 -25 -4 -52 -13 -50 -40 -80 -100 -110 -16 -9 -24 -16 -16 -16 8 0 30 12 50 26 l36 25 -35 -30 c-61 -55 -148 -54 -204 2 -32 32 -32 32 -1 7 l30 -25 -28 31 c-41 46 -55 41 -46 -17 4 -26 13 -57 19 -68 8 -16 8 -21 -2 -22 -7 0 -3 -4 10 -10 13 -5 20 -13 17 -19 -4 -6 -1 -9 6 -8 7 2 13 -3 14 -11 0 -8 7 -15 17 -17 21 -3 57 -23 41 -24 -7 0 -17 -10 -23 -22 -11 -22 -10 -22 4 -4 19 24 20 22 1 -29 -19 -53 -19 -102 2 -164 17 -53 33 -67 33 -30 0 100 90 199 180 199 58 0 151 -65 133 -93 -3 -6 -1 -7 5 -3 20 12 14 70 -12 120 -22 44 -22 46 -3 29 20 -18 20 -18 2 10 -10 15 -20 25 -23 22 -9 -8 -32 17 -25 28 3 6 1 7 -5 3 -6 -4 -24 0 -39 8 -19 11 -23 15 -11 16 12 0 15 5 11 17 -4 10 -2 14 4 10 7 -5 9 1 5 15 -3 11 -1 19 4 15 12 -7 1 151 -14 186 -12 27 -26 35 -36 18z"/>
 <path d="M618 443 c12 -2 30 -2 40 0 9 3 -1 5 -23 4 -22 0 -30 -2 -17 -4z"/>
 <path d="M780 223 c-14 -3 -36 -14 -50 -26 -22 -20 -23 -20 -10 -2 12 17 10 16 -11 -3 -19 -17 -24 -29 -21 -52 2 -17 7 -30 9 -30 3 0 3 13 1 30 -3 17 -1 30 4 30 4 0 9 -16 9 -35 1 -19 2 -40 3 -47 2 -20 63 -33 94 -19 25 10 26 10 8 -4 -11 -8 -15 -15 -9 -15 5 0 18 9 28 20 10 11 14 20 9 20 -5 0 -9 27 -8 60 0 32 -3 57 -8 54 -4 -3 -14 -2 -20 2 -9 6 -5 10 12 15 19 5 20 7 5 7 -11 -1 -31 -3 -45 -5z"/>
 <path d="M646 88 c-3 -13 -5 -32 -5 -43 1 -11 5 -2 10 19 10 42 6 62 -5 24z"/>
 </g>

</svg>